<svg class="rich-terminal" viewBox="0 0 1360 635.5999999999999" xmlns="http://www.w3.org/2000/svg">
    <!-- Generated with Rich https://www.textualize.io -->
    <style>

    @font-face {
        font-family: "Fira Code";
        src: local("FiraCode-Regular"),
                url("https://cdnjs.cloudflare.com/ajax/libs/firacode/6.2.0/woff2/FiraCode-Regular.woff2") format("woff2"),
                url("https://cdnjs.cloudflare.com/ajax/libs/firacode/6.2.0/woff/FiraCode-Regular.woff") format("woff");
        font-style: normal;
        font-weight: 400;
    }
    @font-face {
        font-family: "Fira Code";
        src: local("FiraCode-Bold"),
                url("https://cdnjs.cloudflare.com/ajax/libs/firacode/6.2.0/woff2/FiraCode-Bold.woff2") format("woff2"),
                url("https://cdnjs.cloudflare.com/ajax/libs/firacode/6.2.0/woff/FiraCode-Bold.woff") format("woff");
        font-style: bold;
        font-weight: 700;
    }

    .terminal-3014462347-matrix {
        font-family: Fira Code, monospace;
        font-size: 20px;
        line-height: 24.4px;
        font-variant-east-asian: full-width;
    }

    .terminal-3014462347-title {
        font-size: 18px;
        font-weight: bold;
        font-family: arial;
    }

    .terminal-3014462347-r1 { fill: #c5c8c6 }
.terminal-3014462347-r2 { fill: #888888 }
.terminal-3014462347-r3 { fill: #ff4444;font-weight: bold }
.terminal-3014462347-r4 { fill: #333333 }
.terminal-3014462347-r5 { fill: #ffffff }
.terminal-3014462347-r6 { fill: #aaaaaa }
.terminal-3014462347-r7 { fill: #666666 }
.terminal-3014462347-r8 { fill: #555555 }
.terminal-3014462347-r9 { fill: #1c1c1c }
.terminal-3014462347-r10 { fill: #444444;font-weight: bold }
.terminal-3014462347-r11 { fill: #888888;font-weight: bold }
.terminal-3014462347-r12 { fill: #555555;font-weight: bold }
.terminal-3014462347-r13 { fill: #333333;font-weight: bold }
.terminal-3014462347-r14 { fill: #383838;text-decoration: line-through; }
.terminal-3014462347-r15 { fill: #ff4444;text-decoration: line-through; }
.terminal-3014462347-r16 { fill: #666666;text-decoration: line-through; }
.terminal-3014462347-r17 { fill: #ff4444 }
.terminal-3014462347-r18 { fill: #ffffff;font-weight: bold }
.terminal-3014462347-r19 { fill: #666666;font-weight: bold }
    </style>

    <defs>
    <clipPath id="terminal-3014462347-clip-terminal">
      <rect x="0" y="0" width="1341.0" height="584.5999999999999" />
    </clipPath>
    <clipPath id="terminal-3014462347-line-0">
    <rect x="0" y="1.5" width="1342" height="24.65"/>
            </clipPath>
<clipPath id="terminal-3014462347-line-1">
    <rect x="0" y="25.9" width="1342" height="24.65"/>
            </clipPath>
<clipPath id="terminal-3014462347-line-2">
    <rect x="0" y="50.3" width="1342" height="24.65"/>
            </clipPath>
<clipPath id="terminal-3014462347-line-3">
    <rect x="0" y="74.7" width="1342" height="24.65"/>
            </clipPath>
<clipPath id="terminal-3014462347-line-4">
    <rect x="0" y="99.1" width="1342" height="24.65"/>
            </clipPath>
<clipPath id="terminal-3014462347-line-5">
    <rect x="0" y="123.5" width="1342" height="24.65"/>
            </clipPath>
<clipPath id="terminal-3014462347-line-6">
    <rect x="0" y="147.9" width="1342" height="24.65"/>
            </clipPath>
<clipPath id="terminal-3014462347-line-7">
    <rect x="0" y="172.3" width="1342" height="24.65"/>
            </clipPath>
<clipPath id="terminal-3014462347-line-8">
    <rect x="0" y="196.7" width="1342" height="24.65"/>
            </clipPath>
<clipPath id="terminal-3014462347-line-9">
    <rect x="0" y="221.1" width="1342" height="24.65"/>
            </clipPath>
<clipPath id="terminal-3014462347-line-10">
    <rect x="0" y="245.5" width="1342" height="24.65"/>
            </clipPath>
<clipPath id="terminal-3014462347-line-11">
    <rect x="0" y="269.9" width="1342" height="24.65"/>
            </clipPath>
<clipPath id="terminal-3014462347-line-12">
    <rect x="0" y="294.3" width="1342" height="24.65"/>
            </clipPath>
<clipPath id="terminal-3014462347-line-13">
    <rect x="0" y="318.7" width="1342" height="24.65"/>
            </clipPath>
<clipPath id="terminal-3014462347-line-14">
    <rect x="0" y="343.1" width="1342" height="24.65"/>
            </clipPath>
<clipPath id="terminal-3014462347-line-15">
    <rect x="0" y="367.5" width="1342" height="24.65"/>
            </clipPath>
<clipPath id="terminal-3014462347-line-16">
    <rect x="0" y="391.9" width="1342" height="24.65"/>
            </clipPath>
<clipPath id="terminal-3014462347-line-17">
    <rect x="0" y="416.3" width="1342" height="24.65"/>
            </clipPath>
<clipPath id="terminal-3014462347-line-18">
    <rect x="0" y="440.7" width="1342" height="24.65"/>
            </clipPath>
<clipPath id="terminal-3014462347-line-19">
    <rect x="0" y="465.1" width="1342" height="24.65"/>
            </clipPath>
<clipPath id="terminal-3014462347-line-20">
    <rect x="0" y="489.5" width="1342" height="24.65"/>
            </clipPath>
<clipPath id="terminal-3014462347-line-21">
    <rect x="0" y="513.9" width="1342" height="24.65"/>
            </clipPath>
<clipPath id="terminal-3014462347-line-22">
    <rect x="0" y="538.3" width="1342" height="24.65"/>
            </clipPath>
    </defs>

    <rect fill="#292929" stroke="rgba(255,255,255,0.35)" stroke-width="1" x="1" y="1" width="1358" height="633.6" rx="8"/><text class="terminal-3014462347-title" fill="#c5c8c6" text-anchor="middle" x="679" y="27">Endtime</text>
            <g transform="translate(26,22)">
            <circle cx="0" cy="0" r="7" fill="#ff5f57"/>
            <circle cx="22" cy="0" r="7" fill="#febc2e"/>
            <circle cx="44" cy="0" r="7" fill="#28c840"/>
            </g>
        
    <g transform="translate(9, 41)" clip-path="url(#terminal-3014462347-clip-terminal)">
    <rect fill="#050505" x="0" y="1.5" width="12.2" height="24.65" shape-rendering="crispEdges"/><rect fill="#050505" x="12.2" y="1.5" width="12.2" height="24.65" shape-rendering="crispEdges"/><rect fill="#050505" x="24.4" y="1.5" width="85.4" height="24.65" shape-rendering="crispEdges"/><rect fill="#050505" x="109.8" y="1.5" width="12.2" height="24.65" shape-rendering="crispEdges"/><rect fill="#050505" x="122" y="1.5" width="12.2" height="24.65" shape-rendering="crispEdges"/><rect fill="#050505" x="134.2" y="1.5" width="12.2" height="24.65" shape-rendering="crispEdges"/><rect fill="#050505" x="146.4" y="1.5" width="73.2" height="24.65" shape-rendering="crispEdges"/><rect fill="#050505" x="219.6" y="1.5" width="12.2" height="24.65" shape-rendering="crispEdges"/><rect fill="#050505" x="231.8" y="1.5" width="12.2" height="24.65" shape-rendering="crispEdges"/><rect fill="#050505" x="244" y="1.5" width="12.2" height="24.65" shape-rendering="crispEdges"/><rect fill="#050505" x="256.2" y="1.5" width="36.6" height="24.65" shape-rendering="crispEdges"/><rect fill="#050505" x="292.8" y="1.5" width="73.2" height="24.65" shape-rendering="crispEdges"/><rect fill="#050505" x="366" y="1.5" width="12.2" height="24.65" shape-rendering="crispEdges"/><rect fill="#050505" x="378.2" y="1.5" width="12.2" height="24.65" shape-rendering="crispEdges"/><rect fill="#050505" x="390.4" y="1.5" width="36.6" height="24.65" shape-rendering="crispEdges"/><rect fill="#050505" x="427" y="1.5" width="12.2" height="24.65" shape-rendering="crispEdges"/><rect fill="#050505" x="439.2" y="1.5" width="61" height="24.65" shape-rendering="crispEdges"/><rect fill="#050505" x="500.2" y="1.5" width="12.2" height="24.65" shape-rendering="crispEdges"/><rect fill="#050505" x="512.4" y="1.5" width="12.2" height="24.65" shape-rendering="crispEdges"/><rect fill="#050505" x="524.6" y="1.5" width="12.2" height="24.65" shape-rendering="crispEdges"/><rect fill="#050505" x="536.8" y="1.5" width="109.8" height="24.65" shape-rendering="crispEdges"/><rect fill="#050505" x="646.6" y="1.5" width="12.2" height="24.65" shape-rendering="crispEdges"/><rect fill="#050505" x="658.8" y="1.5" width="305" height="24.65" shape-rendering="crispEdges"/><rect fill="#050505" x="963.8" y="1.5" width="36.6" height="24.65" shape-rendering="crispEdges"/><rect fill="#050505" x="1000.4" y="1.5" width="61" height="24.65" shape-rendering="crispEdges"/><rect fill="#050505" x="1061.4" y="1.5" width="12.2" height="24.65" shape-rendering="crispEdges"/><rect fill="#050505" x="1073.6" y="1.5" width="12.2" height="24.65" shape-rendering="crispEdges"/><rect fill="#050505" x="1085.8" y="1.5" width="12.2" height="24.65" shape-rendering="crispEdges"/><rect fill="#050505" x="1098" y="1.5" width="97.6" height="24.65" shape-rendering="crispEdges"/><rect fill="#050505" x="1195.6" y="1.5" width="134.2" height="24.65" shape-rendering="crispEdges"/><rect fill="#050505" x="1329.8" y="1.5" width="12.2" height="24.65" shape-rendering="crispEdges"/><rect fill="#050505" x="0" y="25.9" width="1342" height="24.65" shape-rendering="crispEdges"/><rect fill="#000000" x="0" y="50.3" width="12.2" height="24.65" shape-rendering="crispEdges"/><rect fill="#000000" x="12.2" y="50.3" width="1317.6" height="24.65" shape-rendering="crispEdges"/><rect fill="#000000" x="1329.8" y="50.3" width="12.2" height="24.65" shape-rendering="crispEdges"/><rect fill="#000000" x="0" y="74.7" width="12.2" height="24.65" shape-rendering="crispEdges"/><rect fill="#000000" x="12.2" y="74.7" width="24.4" height="24.65" shape-rendering="crispEdges"/><rect fill="#000000" x="36.6" y="74.7" width="109.8" height="24.65" shape-rendering="crispEdges"/><rect fill="#000000" x="146.4" y="74.7" width="12.2" height="24.65" shape-rendering="crispEdges"/><rect fill="#000000" x="158.6" y="74.7" width="36.6" height="24.65" shape-rendering="crispEdges"/><rect fill="#000000" x="195.2" y="74.7" width="12.2" height="24.65" shape-rendering="crispEdges"/><rect fill="#000000" x="207.4" y="74.7" width="61" height="24.65" shape-rendering="crispEdges"/><rect fill="#000000" x="268.4" y="74.7" width="12.2" height="24.65" shape-rendering="crispEdges"/><rect fill="#000000" x="280.6" y="74.7" width="244" height="24.65" shape-rendering="crispEdges"/><rect fill="#000000" x="524.6" y="74.7" width="805.2" height="24.65" shape-rendering="crispEdges"/><rect fill="#000000" x="1329.8" y="74.7" width="12.2" height="24.65" shape-rendering="crispEdges"/><rect fill="#000000" x="0" y="99.1" width="12.2" height="24.65" shape-rendering="crispEdges"/><rect fill="#000000" x="12.2" y="99.1" width="24.4" height="24.65" shape-rendering="crispEdges"/><rect fill="#000000" x="36.6" y="99.1" width="36.6" height="24.65" shape-rendering="crispEdges"/><rect fill="#000000" x="73.2" y="99.1" width="12.2" height="24.65" shape-rendering="crispEdges"/><rect fill="#000000" x="85.4" y="99.1" width="366" height="24.65" shape-rendering="crispEdges"/><rect fill="#000000" x="451.4" y="99.1" width="12.2" height="24.65" shape-rendering="crispEdges"/><rect fill="#000000" x="463.6" y="99.1" width="36.6" height="24.65" shape-rendering="crispEdges"/><rect fill="#000000" x="500.2" y="99.1" width="97.6" height="24.65" shape-rendering="crispEdges"/><rect fill="#000000" x="597.8" y="99.1" width="732" height="24.65" shape-rendering="crispEdges"/><rect fill="#000000" x="1329.8" y="99.1" width="12.2" height="24.65" shape-rendering="crispEdges"/><rect fill="#000000" x="0" y="123.5" width="12.2" height="24.65" shape-rendering="crispEdges"/><rect fill="#000000" x="12.2" y="123.5" width="24.4" height="24.65" shape-rendering="crispEdges"/><rect fill="#000000" x="36.6" y="123.5" width="36.6" height="24.65" shape-rendering="crispEdges"/><rect fill="#000000" x="73.2" y="123.5" width="12.2" height="24.65" shape-rendering="crispEdges"/><rect fill="#000000" x="85.4" y="123.5" width="292.8" height="24.65" shape-rendering="crispEdges"/><rect fill="#000000" x="378.2" y="123.5" width="12.2" height="24.65" shape-rendering="crispEdges"/><rect fill="#000000" x="390.4" y="123.5" width="24.4" height="24.65" shape-rendering="crispEdges"/><rect fill="#000000" x="414.8" y="123.5" width="915" height="24.65" shape-rendering="crispEdges"/><rect fill="#000000" x="1329.8" y="123.5" width="12.2" height="24.65" shape-rendering="crispEdges"/><rect fill="#000000" x="0" y="147.9" width="12.2" height="24.65" shape-rendering="crispEdges"/><rect fill="#000000" x="12.2" y="147.9" width="1317.6" height="24.65" shape-rendering="crispEdges"/><rect fill="#000000" x="1329.8" y="147.9" width="12.2" height="24.65" shape-rendering="crispEdges"/><rect fill="#000000" x="0" y="172.3" width="12.2" height="24.65" shape-rendering="crispEdges"/><rect fill="#000000" x="12.2" y="172.3" width="24.4" height="24.65" shape-rendering="crispEdges"/><rect fill="#000000" x="36.6" y="172.3" width="134.2" height="24.65" shape-rendering="crispEdges"/><rect fill="#000000" x="170.8" y="172.3" width="12.2" height="24.65" shape-rendering="crispEdges"/><rect fill="#000000" x="183" y="172.3" width="36.6" height="24.65" shape-rendering="crispEdges"/><rect fill="#000000" x="219.6" y="172.3" width="12.2" height="24.65" shape-rendering="crispEdges"/><rect fill="#000000" x="231.8" y="172.3" width="244" height="24.65" shape-rendering="crispEdges"/><rect fill="#000000" x="475.8" y="172.3" width="854" height="24.65" shape-rendering="crispEdges"/><rect fill="#000000" x="1329.8" y="172.3" width="12.2" height="24.65" shape-rendering="crispEdges"/><rect fill="#000000" x="0" y="196.7" width="12.2" height="24.65" shape-rendering="crispEdges"/><rect fill="#000000" x="12.2" y="196.7" width="24.4" height="24.65" shape-rendering="crispEdges"/><rect fill="#000000" x="36.6" y="196.7" width="36.6" height="24.65" shape-rendering="crispEdges"/><rect fill="#000000" x="73.2" y="196.7" width="12.2" height="24.65" shape-rendering="crispEdges"/><rect fill="#000000" x="85.4" y="196.7" width="439.2" height="24.65" shape-rendering="crispEdges"/><rect fill="#000000" x="524.6" y="196.7" width="805.2" height="24.65" shape-rendering="crispEdges"/><rect fill="#000000" x="1329.8" y="196.7" width="12.2" height="24.65" shape-rendering="crispEdges"/><rect fill="#000000" x="0" y="221.1" width="12.2" height="24.65" shape-rendering="crispEdges"/><rect fill="#000000" x="12.2" y="221.1" width="1317.6" height="24.65" shape-rendering="crispEdges"/><rect fill="#000000" x="1329.8" y="221.1" width="12.2" height="24.65" shape-rendering="crispEdges"/><rect fill="#000000" x="0" y="245.5" width="12.2" height="24.65" shape-rendering="crispEdges"/><rect fill="#000000" x="12.2" y="245.5" width="24.4" height="24.65" shape-rendering="crispEdges"/><rect fill="#000000" x="36.6" y="245.5" width="85.4" height="24.65" shape-rendering="crispEdges"/><rect fill="#000000" x="122" y="245.5" width="12.2" height="24.65" shape-rendering="crispEdges"/><rect fill="#000000" x="134.2" y="245.5" width="36.6" height="24.65" shape-rendering="crispEdges"/><rect fill="#000000" x="170.8" y="245.5" width="12.2" height="24.65" shape-rendering="crispEdges"/><rect fill="#000000" x="183" y="245.5" width="61" height="24.65" shape-rendering="crispEdges"/><rect fill="#000000" x="244" y="245.5" width="12.2" height="24.65" shape-rendering="crispEdges"/><rect fill="#000000" x="256.2" y="245.5" width="244" height="24.65" shape-rendering="crispEdges"/><rect fill="#000000" x="500.2" y="245.5" width="829.6" height="24.65" shape-rendering="crispEdges"/><rect fill="#000000" x="1329.8" y="245.5" width="12.2" height="24.65" shape-rendering="crispEdges"/><rect fill="#000000" x="0" y="269.9" width="12.2" height="24.65" shape-rendering="crispEdges"/><rect fill="#111111" x="12.2" y="269.9" width="12.2" height="24.65" shape-rendering="crispEdges"/><rect fill="#111111" x="24.4" y="269.9" width="12.2" height="24.65" shape-rendering="crispEdges"/><rect fill="#111111" x="36.6" y="269.9" width="36.6" height="24.65" shape-rendering="crispEdges"/><rect fill="#111111" x="73.2" y="269.9" width="12.2" height="24.65" shape-rendering="crispEdges"/><rect fill="#111111" x="85.4" y="269.9" width="451.4" height="24.65" shape-rendering="crispEdges"/><rect fill="#111111" x="536.8" y="269.9" width="12.2" height="24.65" shape-rendering="crispEdges"/><rect fill="#111111" x="549" y="269.9" width="109.8" height="24.65" shape-rendering="crispEdges"/><rect fill="#111111" x="658.8" y="269.9" width="671" height="24.65" shape-rendering="crispEdges"/><rect fill="#000000" x="1329.8" y="269.9" width="12.2" height="24.65" shape-rendering="crispEdges"/><rect fill="#000000" x="0" y="294.3" width="12.2" height="24.65" shape-rendering="crispEdges"/><rect fill="#000000" x="12.2" y="294.3" width="24.4" height="24.65" shape-rendering="crispEdges"/><rect fill="#000000" x="36.6" y="294.3" width="36.6" height="24.65" shape-rendering="crispEdges"/><rect fill="#000000" x="73.2" y="294.3" width="12.2" height="24.65" shape-rendering="crispEdges"/><rect fill="#000000" x="85.4" y="294.3" width="524.6" height="24.65" shape-rendering="crispEdges"/><rect fill="#000000" x="610" y="294.3" width="12.2" height="24.65" shape-rendering="crispEdges"/><rect fill="#000000" x="622.2" y="294.3" width="12.2" height="24.65" shape-rendering="crispEdges"/><rect fill="#000000" x="634.4" y="294.3" width="73.2" height="24.65" shape-rendering="crispEdges"/><rect fill="#000000" x="707.6" y="294.3" width="12.2" height="24.65" shape-rendering="crispEdges"/><rect fill="#000000" x="719.8" y="294.3" width="61" height="24.65" shape-rendering="crispEdges"/><rect fill="#000000" x="780.8" y="294.3" width="549" height="24.65" shape-rendering="crispEdges"/><rect fill="#000000" x="1329.8" y="294.3" width="12.2" height="24.65" shape-rendering="crispEdges"/><rect fill="#000000" x="0" y="318.7" width="12.2" height="24.65" shape-rendering="crispEdges"/><rect fill="#000000" x="12.2" y="318.7" width="1317.6" height="24.65" shape-rendering="crispEdges"/><rect fill="#000000" x="1329.8" y="318.7" width="12.2" height="24.65" shape-rendering="crispEdges"/><rect fill="#000000" x="0" y="343.1" width="12.2" height="24.65" shape-rendering="crispEdges"/><rect fill="#000000" x="12.2" y="343.1" width="24.4" height="24.65" shape-rendering="crispEdges"/><rect fill="#000000" x="36.6" y="343.1" width="134.2" height="24.65" shape-rendering="crispEdges"/><rect fill="#000000" x="170.8" y="343.1" width="12.2" height="24.65" shape-rendering="crispEdges"/><rect fill="#000000" x="183" y="343.1" width="36.6" height="24.65" shape-rendering="crispEdges"/><rect fill="#000000" x="219.6" y="343.1" width="12.2" height="24.65" shape-rendering="crispEdges"/><rect fill="#000000" x="231.8" y="343.1" width="244" height="24.65" shape-rendering="crispEdges"/><rect fill="#000000" x="475.8" y="343.1" width="854" height="24.65" shape-rendering="crispEdges"/><rect fill="#000000" x="1329.8" y="343.1" width="12.2" height="24.65" shape-rendering="crispEdges"/><rect fill="#000000" x="0" y="367.5" width="12.2" height="24.65" shape-rendering="crispEdges"/><rect fill="#000000" x="12.2" y="367.5" width="24.4" height="24.65" shape-rendering="crispEdges"/><rect fill="#000000" x="36.6" y="367.5" width="36.6" height="24.65" shape-rendering="crispEdges"/><rect fill="#000000" x="73.2" y="367.5" width="12.2" height="24.65" shape-rendering="crispEdges"/><rect fill="#000000" x="85.4" y="367.5" width="561.2" height="24.65" shape-rendering="crispEdges"/><rect fill="#000000" x="646.6" y="367.5" width="12.2" height="24.65" shape-rendering="crispEdges"/><rect fill="#000000" x="658.8" y="367.5" width="12.2" height="24.65" shape-rendering="crispEdges"/><rect fill="#000000" x="671" y="367.5" width="158.6" height="24.65" shape-rendering="crispEdges"/><rect fill="#000000" x="829.6" y="367.5" width="12.2" height="24.65" shape-rendering="crispEdges"/><rect fill="#000000" x="841.8" y="367.5" width="61" height="24.65" shape-rendering="crispEdges"/><rect fill="#000000" x="902.8" y="367.5" width="427" height="24.65" shape-rendering="crispEdges"/><rect fill="#000000" x="1329.8" y="367.5" width="12.2" height="24.65" shape-rendering="crispEdges"/><rect fill="#000000" x="0" y="391.9" width="12.2" height="24.65" shape-rendering="crispEdges"/><rect fill="#000000" x="12.2" y="391.9" width="24.4" height="24.65" shape-rendering="crispEdges"/><rect fill="#000000" x="36.6" y="391.9" width="36.6" height="24.65" shape-rendering="crispEdges"/><rect fill="#000000" x="73.2" y="391.9" width="12.2" height="24.65" shape-rendering="crispEdges"/><rect fill="#000000" x="85.4" y="391.9" width="573.4" height="24.65" shape-rendering="crispEdges"/><rect fill="#000000" x="658.8" y="391.9" width="671" height="24.65" shape-rendering="crispEdges"/><rect fill="#000000" x="1329.8" y="391.9" width="12.2" height="24.65" shape-rendering="crispEdges"/><rect fill="#000000" x="0" y="416.3" width="12.2" height="24.65" shape-rendering="crispEdges"/><rect fill="#000000" x="12.2" y="416.3" width="1317.6" height="24.65" shape-rendering="crispEdges"/><rect fill="#000000" x="1329.8" y="416.3" width="12.2" height="24.65" shape-rendering="crispEdges"/><rect fill="#000000" x="0" y="440.7" width="12.2" height="24.65" shape-rendering="crispEdges"/><rect fill="#000000" x="12.2" y="440.7" width="24.4" height="24.65" shape-rendering="crispEdges"/><rect fill="#000000" x="36.6" y="440.7" width="134.2" height="24.65" shape-rendering="crispEdges"/><rect fill="#000000" x="170.8" y="440.7" width="12.2" height="24.65" shape-rendering="crispEdges"/><rect fill="#000000" x="183" y="440.7" width="134.2" height="24.65" shape-rendering="crispEdges"/><rect fill="#000000" x="317.2" y="440.7" width="12.2" height="24.65" shape-rendering="crispEdges"/><rect fill="#000000" x="329.4" y="440.7" width="244" height="24.65" shape-rendering="crispEdges"/><rect fill="#000000" x="573.4" y="440.7" width="756.4" height="24.65" shape-rendering="crispEdges"/><rect fill="#000000" x="1329.8" y="440.7" width="12.2" height="24.65" shape-rendering="crispEdges"/><rect fill="#000000" x="0" y="465.1" width="12.2" height="24.65" shape-rendering="crispEdges"/><rect fill="#000000" x="12.2" y="465.1" width="24.4" height="24.65" shape-rendering="crispEdges"/><rect fill="#000000" x="36.6" y="465.1" width="36.6" height="24.65" shape-rendering="crispEdges"/><rect fill="#000000" x="73.2" y="465.1" width="12.2" height="24.65" shape-rendering="crispEdges"/><rect fill="#000000" x="85.4" y="465.1" width="549" height="24.65" shape-rendering="crispEdges"/><rect fill="#000000" x="634.4" y="465.1" width="48.8" height="24.65" shape-rendering="crispEdges"/><rect fill="#000000" x="683.2" y="465.1" width="646.6" height="24.65" shape-rendering="crispEdges"/><rect fill="#000000" x="1329.8" y="465.1" width="12.2" height="24.65" shape-rendering="crispEdges"/><rect fill="#000000" x="0" y="489.5" width="12.2" height="24.65" shape-rendering="crispEdges"/><rect fill="#000000" x="12.2" y="489.5" width="1317.6" height="24.65" shape-rendering="crispEdges"/><rect fill="#000000" x="1329.8" y="489.5" width="12.2" height="24.65" shape-rendering="crispEdges"/><rect fill="#050505" x="0" y="513.9" width="1342" height="24.65" shape-rendering="crispEdges"/><rect fill="#050505" x="0" y="538.3" width="12.2" height="24.65" shape-rendering="crispEdges"/><rect fill="#050505" x="12.2" y="538.3" width="12.2" height="24.65" shape-rendering="crispEdges"/><rect fill="#050505" x="24.4" y="538.3" width="12.2" height="24.65" shape-rendering="crispEdges"/><rect fill="#050505" x="36.6" y="538.3" width="195.2" height="24.65" shape-rendering="crispEdges"/><rect fill="#050505" x="231.8" y="538.3" width="1098" height="24.65" shape-rendering="crispEdges"/><rect fill="#050505" x="1329.8" y="538.3" width="12.2" height="24.65" shape-rendering="crispEdges"/><rect fill="#050505" x="0" y="562.7" width="12.2" height="24.65" shape-rendering="crispEdges"/><rect fill="#050505" x="12.2" y="562.7" width="1317.6" height="24.65" shape-rendering="crispEdges"/><rect fill="#050505" x="1329.8" y="562.7" width="12.2" height="24.65" shape-rendering="crispEdges"/>
    <g class="terminal-3014462347-matrix">
    <text class="terminal-3014462347-r3" x="24.4" y="20" textLength="85.4" clip-path="url(#terminal-3014462347-line-0)">ENDTIME</text><text class="terminal-3014462347-r4" x="122" y="20" textLength="12.2" clip-path="url(#terminal-3014462347-line-0)">│</text><text class="terminal-3014462347-r3" x="146.4" y="20" textLength="73.2" clip-path="url(#terminal-3014462347-line-0)">NORMAL</text><text class="terminal-3014462347-r4" x="231.8" y="20" textLength="12.2" clip-path="url(#terminal-3014462347-line-0)">│</text><text class="terminal-3014462347-r5" x="256.2" y="20" textLength="36.6" clip-path="url(#terminal-3014462347-line-0)">[██</text><text class="terminal-3014462347-r4" x="292.8" y="20" textLength="73.2" clip-path="url(#terminal-3014462347-line-0)">░░░░░░</text><text class="terminal-3014462347-r5" x="366" y="20" textLength="12.2" clip-path="url(#terminal-3014462347-line-0)">]</text><text class="terminal-3014462347-r2" x="390.4" y="20" textLength="36.6" clip-path="url(#terminal-3014462347-line-0)">25%</text><text class="terminal-3014462347-r2" x="439.2" y="20" textLength="61" clip-path="url(#terminal-3014462347-line-0)">(2/8)</text><text class="terminal-3014462347-r4" x="512.4" y="20" textLength="12.2" clip-path="url(#terminal-3014462347-line-0)">│</text><text class="terminal-3014462347-r3" x="536.8" y="20" textLength="109.8" clip-path="url(#terminal-3014462347-line-0)">●&#160;P&#160;14:20</text><text class="terminal-3014462347-r6" x="658.8" y="20" textLength="305" clip-path="url(#terminal-3014462347-line-0)">Implement&#160;telemetry&#160;sess…</text><text class="terminal-3014462347-r2" x="963.8" y="20" textLength="36.6" clip-path="url(#terminal-3014462347-line-0)">&#160;|&#160;</text><text class="terminal-3014462347-r7" x="1000.4" y="20" textLength="61" clip-path="url(#terminal-3014462347-line-0)">00:57</text><text class="terminal-3014462347-r4" x="1073.6" y="20" textLength="12.2" clip-path="url(#terminal-3014462347-line-0)">│</text><text class="terminal-3014462347-r8" x="1098" y="20" textLength="97.6" clip-path="url(#terminal-3014462347-line-0)">[?]&#160;help</text><text class="terminal-3014462347-r1" x="1342" y="20" textLength="12.2" clip-path="url(#terminal-3014462347-line-0)">
</text><text class="terminal-3014462347-r9" x="0" y="44.4" textLength="1342" clip-path="url(#terminal-3014462347-line-1)">──────────────────────────────────────────────────────────────────────────────────────────────────────────────</text><text class="terminal-3014462347-r1" x="1342" y="44.4" textLength="12.2" clip-path="url(#terminal-3014462347-line-1)">
</text><text class="terminal-3014462347-r1" x="1342" y="68.8" textLength="12.2" clip-path="url(#terminal-3014462347-line-2)">
</text><text class="terminal-3014462347-r3" x="36.6" y="93.2" textLength="109.8" clip-path="url(#terminal-3014462347-line-3)">▾&#160;[DAILY]</text><text class="terminal-3014462347-r11" x="158.6" y="93.2" textLength="36.6" clip-path="url(#terminal-3014462347-line-3)">1/2</text><text class="terminal-3014462347-r12" x="207.4" y="93.2" textLength="61" clip-path="url(#terminal-3014462347-line-3)">[50%]</text><text class="terminal-3014462347-r13" x="280.6" y="93.2" textLength="244" clip-path="url(#terminal-3014462347-line-3)">────────────────────</text><text class="terminal-3014462347-r1" x="1342" y="93.2" textLength="12.2" clip-path="url(#terminal-3014462347-line-3)">
</text><text class="terminal-3014462347-r15" x="36.6" y="117.6" textLength="36.6" clip-path="url(#terminal-3014462347-line-4)">[✓]</text><text class="terminal-3014462347-r14" x="85.4" y="117.6" textLength="366" clip-path="url(#terminal-3014462347-line-4)">Deep&#160;work&#160;focus&#160;session&#160;(90m)&#160;</text><text class="terminal-3014462347-r15" x="451.4" y="117.6" textLength="12.2" clip-path="url(#terminal-3014462347-line-4)">·</text><text class="terminal-3014462347-r14" x="463.6" y="117.6" textLength="36.6" clip-path="url(#terminal-3014462347-line-4)">&#160;2&#160;</text><text class="terminal-3014462347-r16" x="500.2" y="117.6" textLength="97.6" clip-path="url(#terminal-3014462347-line-4)">(1h&#160;30m)</text><text class="terminal-3014462347-r1" x="1342" y="117.6" textLength="12.2" clip-path="url(#terminal-3014462347-line-4)">
</text><text class="terminal-3014462347-r5" x="36.6" y="142" textLength="36.6" clip-path="url(#terminal-3014462347-line-5)">[&#160;]</text><text class="terminal-3014462347-r5" x="85.4" y="142" textLength="292.8" clip-path="url(#terminal-3014462347-line-5)">30m&#160;cardio&#160;&amp;&#160;stretching&#160;</text><text class="terminal-3014462347-r17" x="378.2" y="142" textLength="12.2" clip-path="url(#terminal-3014462347-line-5)">·</text><text class="terminal-3014462347-r5" x="390.4" y="142" textLength="24.4" clip-path="url(#terminal-3014462347-line-5)">&#160;1</text><text class="terminal-3014462347-r1" x="1342" y="142" textLength="12.2" clip-path="url(#terminal-3014462347-line-5)">
</text><text class="terminal-3014462347-r1" x="1342" y="166.4" textLength="12.2" clip-path="url(#terminal-3014462347-line-6)">
</text><text class="terminal-3014462347-r3" x="36.6" y="190.8" textLength="134.2" clip-path="url(#terminal-3014462347-line-7)">▾&#160;[GENERAL]</text><text class="terminal-3014462347-r11" x="183" y="190.8" textLength="36.6" clip-path="url(#terminal-3014462347-line-7)">0/1</text><text class="terminal-3014462347-r13" x="231.8" y="190.8" textLength="244" clip-path="url(#terminal-3014462347-line-7)">────────────────────</text><text class="terminal-3014462347-r1" x="1342" y="190.8" textLength="12.2" clip-path="url(#terminal-3014462347-line-7)">
</text><text class="terminal-3014462347-r5" x="36.6" y="215.2" textLength="36.6" clip-path="url(#terminal-3014462347-line-8)">[&#160;]</text><text class="terminal-3014462347-r5" x="85.4" y="215.2" textLength="439.2" clip-path="url(#terminal-3014462347-line-8)">Backup&#160;GPG&#160;keys&#160;and&#160;SSH&#160;certificates</text><text class="terminal-3014462347-r1" x="1342" y="215.2" textLength="12.2" clip-path="url(#terminal-3014462347-line-8)">
</text><text class="terminal-3014462347-r1" x="1342" y="239.6" textLength="12.2" clip-path="url(#terminal-3014462347-line-9)">
</text><text class="terminal-3014462347-r18" x="36.6" y="264" textLength="85.4" clip-path="url(#terminal-3014462347-line-10)">▾&#160;[DEV]</text><text class="terminal-3014462347-r11" x="134.2" y="264" textLength="36.6" clip-path="url(#terminal-3014462347-line-10)">1/3</text><text class="terminal-3014462347-r12" x="183" y="264" textLength="61" clip-path="url(#terminal-3014462347-line-10)">[33%]</text><text class="terminal-3014462347-r13" x="256.2" y="264" textLength="244" clip-path="url(#terminal-3014462347-line-10)">────────────────────</text><text class="terminal-3014462347-r1" x="1342" y="264" textLength="12.2" clip-path="url(#terminal-3014462347-line-10)">
</text><text class="terminal-3014462347-r17" x="12.2" y="288.4" textLength="12.2" clip-path="url(#terminal-3014462347-line-11)">&gt;</text><text class="terminal-3014462347-r5" x="36.6" y="288.4" textLength="36.6" clip-path="url(#terminal-3014462347-line-11)">[&#160;]</text><text class="terminal-3014462347-r3" x="85.4" y="288.4" textLength="451.4" clip-path="url(#terminal-3014462347-line-11)">Implement&#160;telemetry&#160;session&#160;snapshots</text><text class="terminal-3014462347-r3" x="549" y="288.4" textLength="109.8" clip-path="url(#terminal-3014462347-line-11)">●&#160;P&#160;14:20</text><text class="terminal-3014462347-r1" x="1342" y="288.4" textLength="12.2" clip-path="url(#terminal-3014462347-line-11)">
</text><text class="terminal-3014462347-r5" x="36.6" y="312.8" textLength="36.6" clip-path="url(#terminal-3014462347-line-12)">[&#160;]</text><text class="terminal-3014462347-r5" x="85.4" y="312.8" textLength="524.6" clip-path="url(#terminal-3014462347-line-12)">Write&#160;integration&#160;test&#160;suite&#160;for&#160;scheduler&#160;</text><text class="terminal-3014462347-r7" x="610" y="312.8" textLength="12.2" clip-path="url(#terminal-3014462347-line-12)">◷</text><text class="terminal-3014462347-r2" x="634.4" y="312.8" textLength="73.2" clip-path="url(#terminal-3014462347-line-12)">in&#160;44m</text><text class="terminal-3014462347-r7" x="719.8" y="312.8" textLength="61" clip-path="url(#terminal-3014462347-line-12)">(20m)</text><text class="terminal-3014462347-r1" x="1342" y="312.8" textLength="12.2" clip-path="url(#terminal-3014462347-line-12)">
</text><text class="terminal-3014462347-r1" x="1342" y="337.2" textLength="12.2" clip-path="url(#terminal-3014462347-line-13)">
</text><text class="terminal-3014462347-r18" x="36.6" y="361.6" textLength="134.2" clip-path="url(#terminal-3014462347-line-14)">▾&#160;[PROJECT]</text><text class="terminal-3014462347-r11" x="183" y="361.6" textLength="36.6" clip-path="url(#terminal-3014462347-line-14)">0/2</text><text class="terminal-3014462347-r13" x="231.8" y="361.6" textLength="244" clip-path="url(#terminal-3014462347-line-14)">────────────────────</text><text class="terminal-3014462347-r1" x="1342" y="361.6" textLength="12.2" clip-path="url(#terminal-3014462347-line-14)">
</text><text class="terminal-3014462347-r5" x="36.6" y="386" textLength="36.6" clip-path="url(#terminal-3014462347-line-15)">[&#160;]</text><text class="terminal-3014462347-r5" x="85.4" y="386" textLength="561.2" clip-path="url(#terminal-3014462347-line-15)">Finalize&#160;Q3&#160;infrastructure&#160;deployment&#160;roadmap&#160;</text><text class="terminal-3014462347-r7" x="646.6" y="386" textLength="12.2" clip-path="url(#terminal-3014462347-line-15)">◷</text><text class="terminal-3014462347-r2" x="671" y="386" textLength="158.6" clip-path="url(#terminal-3014462347-line-15)">03:57&#160;(in&#160;2h)</text><text class="terminal-3014462347-r7" x="841.8" y="386" textLength="61" clip-path="url(#terminal-3014462347-line-15)">(40m)</text><text class="terminal-3014462347-r1" x="1342" y="386" textLength="12.2" clip-path="url(#terminal-3014462347-line-15)">
</text><text class="terminal-3014462347-r5" x="36.6" y="410.4" textLength="36.6" clip-path="url(#terminal-3014462347-line-16)">[&#160;]</text><text class="terminal-3014462347-r5" x="85.4" y="410.4" textLength="573.4" clip-path="url(#terminal-3014462347-line-16)">Security&#160;audit&#160;&amp;&#160;dependency&#160;vulnerability&#160;sweep</text><text class="terminal-3014462347-r1" x="1342" y="410.4" textLength="12.2" clip-path="url(#terminal-3014462347-line-16)">
</text><text class="terminal-3014462347-r1" x="1342" y="434.8" textLength="12.2" clip-path="url(#terminal-3014462347-line-17)">
</text><text class="terminal-3014462347-r19" x="36.6" y="459.2" textLength="134.2" clip-path="url(#terminal-3014462347-line-18)">▾&#160;[CLEARED]</text><text class="terminal-3014462347-r10" x="183" y="459.2" textLength="134.2" clip-path="url(#terminal-3014462347-line-18)">(1&#160;cleared)</text><text class="terminal-3014462347-r13" x="329.4" y="459.2" textLength="244" clip-path="url(#terminal-3014462347-line-18)">────────────────────</text><text class="terminal-3014462347-r1" x="1342" y="459.2" textLength="12.2" clip-path="url(#terminal-3014462347-line-18)">
</text><text class="terminal-3014462347-r15" x="36.6" y="483.6" textLength="36.6" clip-path="url(#terminal-3014462347-line-19)">[✓]</text><text class="terminal-3014462347-r14" x="85.4" y="483.6" textLength="549" clip-path="url(#terminal-3014462347-line-19)">Refactor&#160;O(1)&#160;tag&#160;cache&#160;&amp;&#160;virtualized&#160;scroll&#160;</text><text class="terminal-3014462347-r16" x="634.4" y="483.6" textLength="48.8" clip-path="url(#terminal-3014462347-line-19)">(1h)</text><text class="terminal-3014462347-r1" x="1342" y="483.6" textLength="12.2" clip-path="url(#terminal-3014462347-line-19)">
</text><text class="terminal-3014462347-r1" x="1342" y="508" textLength="12.2" clip-path="url(#terminal-3014462347-line-20)">
</text><text class="terminal-3014462347-r9" x="0" y="532.4" textLength="1342" clip-path="url(#terminal-3014462347-line-21)">──────────────────────────────────────────────────────────────────────────────────────────────────────────────</text><text class="terminal-3014462347-r1" x="1342" y="532.4" textLength="12.2" clip-path="url(#terminal-3014462347-line-21)">
</text><text class="terminal-3014462347-r17" x="12.2" y="556.8" textLength="12.2" clip-path="url(#terminal-3014462347-line-22)">&gt;</text><text class="terminal-3014462347-r2" x="36.6" y="556.8" textLength="195.2" clip-path="url(#terminal-3014462347-line-22)">AWAITING&#160;TASK...</text><text class="terminal-3014462347-r1" x="1342" y="556.8" textLength="12.2" clip-path="url(#terminal-3014462347-line-22)">
</text>
    </g>
    </g>
</svg>
